<svg width="80" height="76" fill="none" xmlns="http://www.w3.org/2000/svg"><path fill-rule="evenodd" clip-rule="evenodd" d="M40.001 4c-19.868 0-36 16.133-36 36.001 0 19.869 16.132 36 36 36 19.869 0 36-16.131 36-36 0-19.868-16.131-36-36-36zm0 8c15.453 0 28 12.549 28 28.001 0 15.453-12.548 28-28 28s-28-12.548-28-28 12.548-28 28-28zm4 26.345L54.83 49.173a4.003 4.003 0 010 5.657 4.003 4.003 0 01-5.657 0l-12-12A3.99 3.99 0 0136.001 40V24c0-2.208 1.792-4 4-4s4 1.792 4 4v14.344zM6.925 10.733l3.736-4a4.005 4.005 0 00-.192-5.657 4.005 4.005 0 00-5.657.192l-3.736 4a4.005 4.005 0 00.192 5.657 4.005 4.005 0 005.656-.192zm62.249-3.905l4 4a4.003 4.003 0 005.656 0 4.003 4.003 0 000-5.656l-4-4a4.003 4.003 0 00-5.656 0 4.003 4.003 0 000 5.656z" fill="#48CAE4"/></svg>