<svg width="80" height="80" fill="none" xmlns="http://www.w3.org/2000/svg"><path d="M71.43 0h-8.57a8.571 8.571 0 00-8.572 8.571v2.858h-4.285a2.857 2.857 0 00-2.858 2.857v10a10 10 0 007.143 9.543v14.514c0 4.028-1.685 4.028-2.4 4.028a2.857 2.857 0 100 5.715c5 0 8.115-3.8 8.115-9.743V33.829a10 10 0 007.142-9.543v-10a2.857 2.857 0 00-2.857-2.857h-4.285V8.57a2.857 2.857 0 012.857-2.857h8.571a2.857 2.857 0 012.857 2.857v65.715h-8.571a2.857 2.857 0 100 5.714h11.428a2.857 2.857 0 002.858-2.857V8.57A8.572 8.572 0 0071.43 0zM57.144 28.571a4.314 4.314 0 01-4.028-2.857h8.057a4.315 4.315 0 01-4.029 2.857zM61.43 20h-8.57v-2.857h8.571V20zM36.2 52.371H12.371A12.4 12.4 0 000 64.771v12.371a2.857 2.857 0 105.714 0v-4.77h37.143v4.77a2.857 2.857 0 005.714 0v-12.37a12.4 12.4 0 00-12.371-12.4zM5.714 66.657V64.77a6.686 6.686 0 016.657-6.686H36.2a6.686 6.686 0 016.657 6.686v1.886H5.714z" fill="#48CAE4"/><path d="M36.2 28.57H12.371A12.371 12.371 0 000 40.942v9.057a2.857 2.857 0 005.714 0v-9.057a6.686 6.686 0 016.657-6.657H36.2a6.686 6.686 0 016.657 6.657v9.057a2.857 2.857 0 005.714 0v-9.057A12.371 12.371 0 0036.2 28.57z" fill="#48CAE4"/><path d="M30.484 50.858a2.855 2.855 0 003.485-2.057v-.486a10.544 10.544 0 00-10.285-12.6A10.457 10.457 0 0013.227 46.2c.004.875.11 1.748.314 2.6a2.857 2.857 0 002.857 2.142c.237.028.477.028.714 0a2.857 2.857 0 002.058-3.457 4.314 4.314 0 01-.143-1.2 4.771 4.771 0 119.514 0 5.717 5.717 0 01-.143 1.2 2.858 2.858 0 002.086 3.372z" fill="#48CAE4"/></svg>