<svg width="80" height="80" fill="none" xmlns="http://www.w3.org/2000/svg"><path d="M39.996 0A39.4 39.4 0 0022.31 4.115a2.857 2.857 0 102.515 5.114A34.286 34.286 0 0174.282 40c0 13.943-7.486 29.486-20 31.429a9.314 9.314 0 01-7.743-1.6 14.286 14.286 0 01-3.686-10.057A20 20 0 0059.996 40V22.857A2.857 2.857 0 0057.14 20h-8.572a2.857 2.857 0 100 5.715h5.715V40a14.286 14.286 0 01-28.572 0V25.715h5.715a2.858 2.858 0 000-5.715h-8.572a2.857 2.857 0 00-2.857 2.857V40A20 20 0 0037.14 59.772c.371 6.571 2.228 11.428 5.543 14.285a13.343 13.343 0 009.257 3.086c1.05.001 2.1-.066 3.143-.2C71.253 74.6 79.996 56.143 79.996 40a40 40 0 00-40-40z" fill="#48CAE4"/><path d="M14.28 57.145c-1.225.018-2.44.23-3.6.628a34.285 34.285 0 014.572-41.514 2.857 2.857 0 10-4.114-3.943A40 40 0 005.88 60.887a11.429 11.429 0 108.4-3.742zm0 17.142a5.714 5.714 0 110-11.428 5.714 5.714 0 010 11.428z" fill="#48CAE4"/></svg>