<svg width="211" height="43" fill="none" xmlns="http://www.w3.org/2000/svg"><path d="M25.448 27.161v6.06l8.809 5.23 8.809-5.23V22.564l-8.81-5.232-21.533 12.886L0 22.663V7.554L12.723 0l12.725 7.554v5.944l-3.915 2.342V9.778l-8.81-5.23-8.808 5.23v10.66l8.808 5.23 21.534-12.884L46.98 20.34v15.104L34.257 43l-12.724-7.556v-5.94l3.915-2.343z" fill="#48CAE4"/><path d="M91.64 33.444h-4.766l-1.514-17.36-5.835 17.36h-3.092l-5.835-17.36-1.53 17.36h-4.783l1.93-23.035h6.822l4.91 14.459 4.974-14.46h6.823l1.897 23.036zm18.365-18.827h-8.544v5.229h7.572v4.16h-7.572v5.214h8.544v4.224H96.646V10.41h13.359v4.208zm4.942 18.827V10.41h8.338c1.806 0 3.406.276 4.798.829 1.403.552 2.551 1.339 3.443 2.359.904 1.01 1.584 2.216 2.041 3.619.467 1.402.701 2.97.701 4.702 0 1.743-.234 3.316-.701 4.72-.457 1.402-1.137 2.613-2.041 3.634-.892 1.01-2.04 1.79-3.443 2.343-1.392.553-2.992.83-4.798.83h-8.338zm4.783-4.224h3.315c2.083 0 3.635-.622 4.655-1.865 1.021-1.255 1.531-3.067 1.531-5.437s-.51-4.176-1.531-5.42c-1.02-1.254-2.572-1.88-4.655-1.88h-3.315V29.22zm19.034 4.224V10.41h4.782v23.035h-4.782zm20.947.319c-1.679 0-3.247-.282-4.703-.845-1.445-.563-2.689-1.35-3.73-2.36-1.042-1.009-1.86-2.258-2.455-3.745-.595-1.488-.893-3.12-.893-4.895 0-2.37.51-4.453 1.53-6.249 1.021-1.806 2.418-3.188 4.193-4.144 1.786-.957 3.805-1.435 6.058-1.435 2.572 0 4.825.622 6.759 1.865 1.934 1.243 3.311 2.954 4.129 5.133l-4.464 1.626c-.51-1.328-1.334-2.364-2.471-3.108-1.137-.744-2.455-1.116-3.953-1.116-2.041 0-3.72.67-5.038 2.008-1.317 1.34-1.976 3.146-1.976 5.42 0 2.275.659 4.087 1.976 5.437 1.329 1.338 3.008 2.008 5.038 2.008 1.488 0 2.8-.372 3.937-1.116 1.148-.754 1.977-1.796 2.487-3.124l4.464 1.626c-.818 2.178-2.195 3.895-4.129 5.149-1.934 1.243-4.187 1.865-6.759 1.865zm30.241-.319l-1.674-4.75h-9.677l-1.673 4.75h-4.894l8.48-23.035h5.851l8.481 23.035h-4.894zm-9.948-8.752h6.871l-3.427-9.772-3.444 9.772zm23.1 4.528h7.221v4.224h-12.004V10.41h4.783v18.81z" fill="#090956"/></svg>