<svg width="188" height="39" fill="none" xmlns="http://www.w3.org/2000/svg"><path d="M22.747 24.278v5.417l7.874 4.675 7.874-4.675v-9.527l-7.874-4.676-19.248 11.517L0 20.257V6.752L11.373 0l11.374 6.752v5.314l-3.5 2.093V8.74l-7.874-4.675L3.5 8.74v9.529l7.873 4.675L30.62 11.427l11.374 6.754v13.501L30.62 38.436l-11.373-6.754v-5.31l3.499-2.094z" fill="#48CAE4"/><path d="M81.913 29.895h-4.26l-1.354-15.518-5.216 15.518H68.32l-5.215-15.518-1.368 15.518H57.46l1.724-20.59h6.099l4.389 12.924 4.445-12.924h6.1l1.695 20.59zm16.415-16.829h-7.637v4.674h6.768v3.72h-6.768v4.659h7.637v3.776h-11.94V9.305h11.94v3.761zm4.418 16.829V9.305h7.452c1.615 0 3.045.247 4.289.74 1.254.495 2.28 1.197 3.078 2.11.807.902 1.415 1.98 1.824 3.234.418 1.254.627 2.655.627 4.204 0 1.558-.209 2.963-.627 4.217-.409 1.254-1.017 2.337-1.824 3.25-.798.902-1.824 1.6-3.078 2.094-1.244.494-2.674.74-4.289.74h-7.452zm4.274-3.776h2.964c1.862 0 3.249-.556 4.161-1.667.912-1.121 1.368-2.741 1.368-4.86 0-2.118-.456-3.733-1.368-4.844-.912-1.121-2.299-1.682-4.161-1.682h-2.964V26.12zm17.014 3.776V9.305h4.275v20.59h-4.275zm18.724.285c-1.501 0-2.902-.252-4.204-.755-1.292-.504-2.403-1.207-3.334-2.11-.931-.902-1.662-2.018-2.194-3.348s-.798-2.788-.798-4.374c0-2.119.456-3.98 1.368-5.586.912-1.615 2.161-2.85 3.747-3.705 1.596-.855 3.401-1.282 5.415-1.282 2.299 0 4.313.555 6.042 1.667 1.729 1.111 2.959 2.64 3.69 4.588l-3.99 1.454c-.456-1.188-1.192-2.114-2.208-2.78-1.017-.664-2.195-.997-3.534-.997-1.824 0-3.325.599-4.503 1.796s-1.767 2.812-1.767 4.845c0 2.032.589 3.652 1.767 4.859 1.188 1.197 2.689 1.795 4.503 1.795 1.33 0 2.503-.332 3.52-.997 1.026-.675 1.766-1.606 2.222-2.793l3.99 1.453c-.731 1.948-1.961 3.482-3.69 4.603-1.729 1.111-3.743 1.667-6.042 1.667zm27.031-.285l-1.496-4.246h-8.649l-1.497 4.246h-4.374l7.58-20.59h5.23l7.581 20.59h-4.375zm-8.892-7.823h6.142l-3.064-8.735-3.078 8.735zm20.648 4.047H188v3.776h-10.73V9.305h4.275v16.814z" fill="#fff"/></svg>