<svg width="64" height="70" viewBox="0 0 64 80" fill="none" xmlns="http://www.w3.org/2000/svg"><path fill-rule="evenodd" clip-rule="evenodd" d="M35.99 8.006v8.013H19.993c-1.06 0-2.08.42-2.827 1.172a3.988 3.988 0 00-1.172 2.827V48.01c0 7.957 5.81 14.56 13.42 15.787l3 5.994a3.993 3.993 0 003.574 2.211V80h7.998v-7.998a3.993 3.993 0 003.575-2.211c1.215-2.431 2.999-5.994 2.999-5.994 7.61-1.228 13.42-7.83 13.42-15.787V20.018c0-1.06-.42-2.08-1.172-2.827a3.988 3.988 0 00-2.827-1.172H43.987V8.002l7.997-.004V0L15.987.02C7.157.024 0 7.182 0 16.015V80h7.998V16.015a7.995 7.995 0 017.993-7.997l19.998-.012zm11.996 48.001a4.006 4.006 0 00-3.603 2.26l-2.867 5.738H38.46l-2.783-5.562-.008-.008a4.005 4.005 0 00-3.679-2.428 7.995 7.995 0 01-7.997-7.997V24.017h31.99V48.01a7.995 7.995 0 01-7.997 7.997zm0-19.994H31.99v7.998h15.996v-7.998z" fill="#48CAE4"/></svg>