<svg width="53" height="55" viewBox="0 0 53 80" fill="none" xmlns="http://www.w3.org/2000/svg"><path d="M50.91 52.727h-3.637V20.91a20.91 20.91 0 10-41.818 0v31.818H1.818A1.818 1.818 0 000 54.546v7.272a1.818 1.818 0 001.818 1.818v14.546A1.818 1.818 0 003.636 80h7.273a1.818 1.818 0 001.818-1.818V63.636a1.818 1.818 0 001.819-1.818v-7.273a1.818 1.818 0 00-1.819-1.818H9.091V20.91a17.273 17.273 0 1134.545 0v31.818H40a1.818 1.818 0 00-1.818 1.819v7.272A1.818 1.818 0 0040 63.636v14.546A1.819 1.819 0 0041.818 80h7.273a1.819 1.819 0 001.818-1.818V63.636a1.818 1.818 0 001.818-1.818v-7.273a1.818 1.818 0 00-1.818-1.818zM9.09 76.364H5.456V63.636H9.09v12.728zM10.91 60H3.635v-3.636h7.273V60zm30.908-3.636h7.273V60h-7.273v-3.636zm5.455 20h-3.637V63.636h3.637v12.728z" fill="#48CAE4"/></svg>