<svg width="58" height="80" fill="none" xmlns="http://www.w3.org/2000/svg"><path d="M40.596 46.253a30.314 30.314 0 00-4.882-.709v-5.602a18.543 18.543 0 006.029-12.227v-5.173a13.001 13.001 0 00-2.47-7.597l3.734-11.184A2.858 2.858 0 0040.296 0H16.847a2.858 2.858 0 00-2.71 3.761l3.732 11.18a13.011 13.011 0 00-2.469 7.6v5.174c.3 4.75 2.453 9.191 5.994 12.37l-.137 5.63A21.247 21.247 0 000 66.972v10.17a2.857 2.857 0 005.714 0v-10.17c0-2.04.4-4.062 1.182-5.947a12.72 12.72 0 0018.818 5.313v10.804a2.857 2.857 0 005.715 0V66.339a12.724 12.724 0 0018.826-5.327 15.602 15.602 0 011.174 5.96v10.17a2.857 2.857 0 005.714 0v-10.17c0-16.928-16.985-21-16.547-20.72zM35.77 20.694c-4.085.739-8.82-1.826-11.768-3.974a7.448 7.448 0 0111.768 3.974zm.559-14.98l-1.71 5.123a13.613 13.613 0 00-12.09.017l-1.717-5.14H36.33zM21.19 21.725a22.13 22.13 0 0014.837 4.724v1.266a13.125 13.125 0 01-4.79 8.502c-5.175 3.546-10.123-4.32-10.123-8.502a49.001 49.001 0 01.076-5.99zm5.952 21.037c.948.13 1.91.127 2.857-.01.215 1.013-1.628 8.328 6.605 8.693-2.855 11.604-13.304 11.23-16.066 0 .236-.01.475-.016.718-.016 7.081 0 5.806-8.38 5.886-8.667zM11.47 54.951a14.883 14.883 0 013.485-2.18 19.794 19.794 0 005.645 9.793 7.15 7.15 0 01-9.13-7.613zm25.074 7.613a19.99 19.99 0 005.646-9.799 14.973 14.973 0 013.483 2.193 7.15 7.15 0 01-9.129 7.606z" fill="#48CAE4"/></svg>