<svg width="80" height="80" fill="none" xmlns="http://www.w3.org/2000/svg"><path d="M54.578 4.955a2.857 2.857 0 00-.619 5.681 22.593 22.593 0 0111.391 4.639c-14.467-1.509-13.488 11.163-23.12 11.163a9.42 9.42 0 01-9.018-6.652 22.297 22.297 0 018.68-7.162 2.857 2.857 0 00-2.408-5.181 28.014 28.014 0 00-6.757 4.433V6.872A6.88 6.88 0 0025.855 0H20.38a6.88 6.88 0 00-6.873 6.872v1.57H2.857a2.857 2.857 0 100 5.714h13.506a2.857 2.857 0 002.857-2.857V6.872a1.16 1.16 0 011.16-1.158h5.475a1.159 1.159 0 011.158 1.158v10.032a37.382 37.382 0 005.266 18.123 4.078 4.078 0 01-4.024 4.895 2.858 2.858 0 00.392 5.686 9.936 9.936 0 008.344-5.342 11.593 11.593 0 004.9 2.591 2.86 2.86 0 001.221-5.44 15.226 15.226 0 01-6.58-6.402 15.048 15.048 0 005.698 1.153c8.792 0 12.274-6.515 13.988-8.166a10.552 10.552 0 0117.206 3.421c.032.077.067.152.106.225a10.6 10.6 0 01.755 3.91v23.048a5.223 5.223 0 01-5.394-3.272 12.143 12.143 0 00-12.477-6.631 2.857 2.857 0 001.047 5.616 6.891 6.891 0 013.41.598 9.633 9.633 0 00-4.13 8.179 2.858 2.858 0 005.692-.513c-.102-1.132.969-2.35 2.15-3.296a10.49 10.49 0 009.703 5.008v8.204a5.794 5.794 0 01-5.787 5.787A49.426 49.426 0 0125.6 49.258a51.691 51.691 0 01-6.38-27.83 2.857 2.857 0 00-2.858-2.858H2.857a2.857 2.857 0 100 5.715h10.649a55.51 55.51 0 006.753 27.062v25.795a2.857 2.857 0 005.715 0V59.88a75.7 75.7 0 007.793 7.743v9.52a2.857 2.857 0 005.714 0v-5.464a54.24 54.24 0 0029.018 8.32 11.513 11.513 0 0011.5-11.5v-36.94C80 16.51 65.93 6.194 54.58 4.954z" fill="#48CAE4"/></svg>