<svg width="80" height="80" fill="none" xmlns="http://www.w3.org/2000/svg"><path d="M77.005 33.113H54.188a2.852 2.852 0 00-2.852 2.852 7.158 7.158 0 01-6.73 6.959h-.4a7.159 7.159 0 01-7.13-7.016 2.852 2.852 0 00-2.852-2.852h-3.308l14.26-18.253 10.838 7.472-1.997 3.537a2.853 2.853 0 104.82 2.852l6.56-10.41A11.865 11.865 0 0046.003 4.62l-22.36 28.52H2.852A2.852 2.852 0 000 35.993V62.46A17.568 17.568 0 0017.569 80h44.72a17.568 17.568 0 0017.568-17.569V35.965a2.852 2.852 0 00-2.852-2.852zM58.895 6.988a6.16 6.16 0 011.653 8.3l-1.369 2.196-10.38-7.13 1.71-2.14a6.246 6.246 0 018.385-1.226zm15.258 55.444a11.893 11.893 0 01-11.865 11.864h-44.72A11.893 11.893 0 015.704 62.431V38.817h26.039a12.89 12.89 0 0012.463 9.81h.742a12.863 12.863 0 0011.722-9.782h17.483v23.587z" fill="#48CAE4"/></svg>