<svg width="57" height="80" fill="none" xmlns="http://www.w3.org/2000/svg"><path d="M44.125 36.953a12.854 12.854 0 00-11.078 6.42 5.836 5.836 0 01-9.166-.012 12.803 12.803 0 10-9.647 19.137V77.15a2.847 2.847 0 005.693 0V58.73a2.848 2.848 0 00-4.142-2.535 7.103 7.103 0 11-2.974-13.548c7.401 0 5.753 8.74 15.657 8.74 9.576 0 8.434-8.74 15.657-8.74a7.104 7.104 0 11-2.975 13.548 2.85 2.85 0 00-4.142 2.536V77.15a2.847 2.847 0 105.694 0V62.498a12.812 12.812 0 101.423-25.545z" fill="#48CAE4"/><path d="M24.944 30.245a3.874 3.874 0 013.525-2.3 3.667 3.667 0 012.897 1.31 10.596 10.596 0 108.807-15.695V2.847a2.847 2.847 0 10-5.693 0v14.325a2.85 2.85 0 004.145 2.534 4.893 4.893 0 112.021 9.343c-4.982 0-4.257-6.797-12.177-6.797-8.024 0-6.956 6.797-12.176 6.797a4.894 4.894 0 112.021-9.343 2.848 2.848 0 004.145-2.534V2.847a2.847 2.847 0 00-5.694 0V13.56a10.592 10.592 0 108.18 16.685z" fill="#48CAE4"/></svg>