<svg width="80" height="76" viewBox="0 0 80 76" fill="none" xmlns="http://www.w3.org/2000/svg">
<path fill-rule="evenodd" clip-rule="evenodd" d="M40.0012 4.00044C20.1328 4.00044 4.00044 20.1328 4.00044 40.0012C4.00044 59.8696 20.1328 76.0019 40.0012 76.0019C59.8696 76.0019 76.0019 59.8696 76.0019 40.0012C76.0019 20.1328 59.8696 4.00044 40.0012 4.00044ZM40.0012 12.0006C55.4535 12.0006 68.0018 24.5489 68.0018 40.0012C68.0018 55.4535 55.4535 68.0018 40.0012 68.0018C24.5489 68.0018 12.0006 55.4535 12.0006 40.0012C12.0006 24.5489 24.5489 12.0006 40.0012 12.0006ZM44.0013 38.3451L54.8295 49.1734C56.3895 50.7334 56.3895 53.2695 54.8295 54.8295C53.2694 56.3895 50.7334 56.3895 49.1734 54.8295L37.1731 42.8292C36.4211 42.0812 36.0011 41.0612 36.0011 40.0012V24.0009C36.0011 21.7928 37.7931 20.0008 40.0012 20.0008C42.2092 20.0008 44.0013 21.7928 44.0013 24.0009V38.3451ZM6.9245 10.7326L10.6606 6.73249C12.1686 5.11646 12.0806 2.58441 10.4686 1.07638C8.85254 -0.431654 6.32049 -0.343652 4.81245 1.26838L1.07638 5.26846C-0.431654 6.8845 -0.343652 9.41655 1.26838 10.9246C2.88441 12.4326 5.41647 12.3446 6.9245 10.7326ZM69.1738 6.8285L73.1739 10.8286C74.7339 12.3886 77.2699 12.3886 78.83 10.8286C80.39 9.26855 80.39 6.73249 78.83 5.17246L74.8299 1.17238C73.2699 -0.387653 70.7338 -0.387653 69.1738 1.17238C67.6137 2.73241 67.6137 5.26846 69.1738 6.8285Z" fill="#48CAE4"/>
</svg>
