<svg width="80" height="80" viewBox="0 0 80 80" fill="none" xmlns="http://www.w3.org/2000/svg">
<path d="M71.4302 0H62.8588C60.5855 0 58.4054 0.903059 56.7979 2.51051C55.1904 4.11797 54.2874 6.29814 54.2874 8.57143V11.4286H50.0017C49.2439 11.4286 48.5172 11.7296 47.9814 12.2654C47.4455 12.8012 47.1445 13.528 47.1445 14.2857V24.2857C47.1532 26.4323 47.8524 28.5192 49.1387 30.2377C50.425 31.9563 52.2302 33.2153 54.2874 33.8286V48.3429C54.2874 52.3714 52.6017 52.3714 51.8874 52.3714C51.1296 52.3714 50.4029 52.6724 49.8671 53.2083C49.3313 53.7441 49.0302 54.4708 49.0302 55.2286C49.0302 55.9863 49.3313 56.7131 49.8671 57.2489C50.4029 57.7847 51.1296 58.0857 51.8874 58.0857C56.8874 58.0857 60.0017 54.2857 60.0017 48.3429V33.8286C62.0588 33.2153 63.864 31.9563 65.1504 30.2377C66.4367 28.5192 67.1359 26.4323 67.1445 24.2857V14.2857C67.1445 13.528 66.8435 12.8012 66.3077 12.2654C65.7719 11.7296 65.0452 11.4286 64.2874 11.4286H60.0017V8.57143C60.0017 7.81367 60.3027 7.08694 60.8385 6.55112C61.3743 6.01531 62.1011 5.71429 62.8588 5.71429H71.4302C72.188 5.71429 72.9147 6.01531 73.4506 6.55112C73.9864 7.08694 74.2874 7.81367 74.2874 8.57143V74.2857H65.716C64.9582 74.2857 64.2315 74.5867 63.6957 75.1226C63.1598 75.6584 62.8588 76.3851 62.8588 77.1429C62.8588 77.9006 63.1598 78.6273 63.6957 79.1632C64.2315 79.699 64.9582 80 65.716 80H77.1445C77.9023 80 78.629 79.699 79.1648 79.1632C79.7007 78.6273 80.0017 77.9006 80.0017 77.1429V8.57143C80.0017 6.29814 79.0986 4.11797 77.4912 2.51051C75.8837 0.903059 73.7035 0 71.4302 0ZM57.1445 28.5714C56.2613 28.5648 55.4014 28.2873 54.681 27.7764C53.9605 27.2654 53.4142 26.5456 53.116 25.7143H61.1731C60.8748 26.5456 60.3286 27.2654 59.6081 27.7764C58.8877 28.2873 58.0277 28.5648 57.1445 28.5714ZM61.4302 20H52.8588V17.1429H61.4302V20Z" fill="#48CAE4"/>
<path d="M36.2 52.3711H12.3714C9.0877 52.3787 5.94104 53.6884 3.62177 56.0131C1.30249 58.3377 -8.71681e-06 61.4874 0 64.7711V77.1425C0 77.9003 0.301019 78.627 0.836838 79.1628C1.37266 79.6986 2.09938 79.9997 2.85714 79.9997C3.6149 79.9997 4.34163 79.6986 4.87745 79.1628C5.41327 78.627 5.71429 77.9003 5.71429 77.1425V72.3711H42.8571V77.1425C42.8571 77.9003 43.1582 78.627 43.694 79.1628C44.2298 79.6986 44.9565 79.9997 45.7143 79.9997C46.472 79.9997 47.1988 79.6986 47.7346 79.1628C48.2704 78.627 48.5714 77.9003 48.5714 77.1425V64.7711C48.5714 61.4874 47.2689 58.3377 44.9497 56.0131C42.6304 53.6884 39.4837 52.3787 36.2 52.3711ZM5.71429 66.6568V64.7711C5.71427 63.0029 6.41473 61.3067 7.66237 60.0537C8.91002 58.8007 10.6032 58.0929 12.3714 58.0854H36.2C37.9682 58.0929 39.6614 58.8007 40.9091 60.0537C42.1567 61.3067 42.8572 63.0029 42.8571 64.7711V66.6568H5.71429Z" fill="#48CAE4"/>
<path d="M36.2 28.5703H12.3714C9.09032 28.5703 5.9436 29.8737 3.62351 32.1938C1.30341 34.5139 0 37.6606 0 40.9417V49.9989C0 50.7566 0.301019 51.4834 0.836838 52.0192C1.37266 52.555 2.09938 52.856 2.85714 52.856C3.6149 52.856 4.34163 52.555 4.87745 52.0192C5.41327 51.4834 5.71429 50.7566 5.71429 49.9989V40.9417C5.72181 39.1785 6.4256 37.4896 7.67243 36.2427C8.91926 34.9959 10.6082 34.2921 12.3714 34.2846H36.2C37.9633 34.2921 39.6522 34.9959 40.899 36.2427C42.1458 37.4896 42.8496 39.1785 42.8571 40.9417V49.9989C42.8571 50.7566 43.1582 51.4834 43.694 52.0192C44.2298 52.555 44.9565 52.856 45.7143 52.856C46.472 52.856 47.1988 52.555 47.7346 52.0192C48.2704 51.4834 48.5714 50.7566 48.5714 49.9989V40.9417C48.5714 37.6606 47.268 34.5139 44.9479 32.1938C42.6278 29.8737 39.4811 28.5703 36.2 28.5703Z" fill="#48CAE4"/>
<path d="M30.4837 50.8577C30.8477 50.9522 31.2267 50.9739 31.5991 50.9215C31.9715 50.8692 32.3298 50.7439 32.6537 50.5528C32.9775 50.3617 33.2604 50.1085 33.4862 49.8078C33.712 49.5071 33.8762 49.1648 33.9695 48.8006V48.3148C34.2728 46.7904 34.2352 45.2177 33.8596 43.7094C33.4839 42.2011 32.7794 40.7946 31.7964 39.5905C30.8135 38.3864 29.5765 37.4145 28.1739 36.7445C26.7714 36.0745 25.2381 35.7229 23.6837 35.7148C22.3081 35.7148 20.9459 35.9863 19.6754 36.5136C18.4048 37.0409 17.2507 37.8137 16.2793 38.7878C15.3079 39.7618 14.5382 40.918 14.0144 42.19C13.4906 43.462 13.2228 44.8249 13.2266 46.2006C13.2314 47.0764 13.3368 47.9488 13.5409 48.8006C13.7029 49.4292 14.0741 49.9839 14.5934 50.3734C15.1127 50.7629 15.7492 50.9639 16.398 50.9434C16.6353 50.9713 16.875 50.9713 17.1123 50.9434C17.8418 50.7548 18.4672 50.2857 18.8525 49.6383C19.2377 48.9908 19.3517 48.2173 19.1695 47.4863C19.0658 47.095 19.0177 46.691 19.0266 46.2863C18.9757 45.6306 19.061 44.9714 19.277 44.3502C19.493 43.729 19.8351 43.1592 20.2818 42.6765C20.7285 42.1938 21.2702 41.8086 21.8728 41.5453C22.4755 41.2819 23.1261 41.1459 23.7837 41.1459C24.4414 41.1459 25.092 41.2819 25.6946 41.5453C26.2973 41.8086 26.839 42.1938 27.2857 42.6765C27.7324 43.1592 28.0745 43.729 28.2905 44.3502C28.5065 44.9714 28.5917 45.6306 28.5409 46.2863C28.5358 46.6902 28.4879 47.0924 28.398 47.4863C28.242 48.2089 28.3721 48.9639 28.761 49.5926C29.15 50.2213 29.7675 50.6748 30.4837 50.8577Z" fill="#48CAE4"/>
</svg>
