<svg width="80" height="80" viewBox="0 0 80 80" fill="none" xmlns="http://www.w3.org/2000/svg">
<path d="M39.9961 0.000307848C33.8609 -0.0239429 27.8049 1.38489 22.3104 4.11459C21.9461 4.2616 21.616 4.48216 21.3408 4.76249C21.0655 5.04282 20.8511 5.37689 20.7108 5.74385C20.5705 6.1108 20.5074 6.50274 20.5254 6.89518C20.5434 7.28762 20.6422 7.67213 20.8155 8.02468C20.9888 8.37723 21.233 8.69025 21.5327 8.94419C21.8325 9.19812 22.1814 9.38751 22.5576 9.50052C22.9339 9.61353 23.3294 9.64773 23.7195 9.60099C24.1095 9.55425 24.4858 9.42757 24.8247 9.22887C30.0538 6.64862 35.8546 5.44466 41.6786 5.73081C47.5026 6.01696 53.1575 7.78377 58.1085 10.8642C63.0595 13.9446 67.143 18.2369 69.973 23.3351C72.803 28.4334 74.286 34.1692 74.2818 40.0003C74.2818 53.9431 66.796 69.486 54.2818 71.4288C52.9528 71.7464 51.5703 71.7676 50.2322 71.4911C48.8941 71.2146 47.6332 70.6471 46.5389 69.8288C44.0525 67.0813 42.7309 63.4752 42.8532 59.7717C47.6092 59.0852 51.9591 56.7093 55.107 53.0787C58.2549 49.4481 59.9904 44.8055 59.9961 40.0003V22.8574C59.9961 22.0997 59.695 21.3729 59.1592 20.8371C58.6234 20.3013 57.8967 20.0003 57.1389 20.0003H48.5675C47.8097 20.0003 47.083 20.3013 46.5472 20.8371C46.0114 21.3729 45.7104 22.0997 45.7104 22.8574C45.7104 23.6152 46.0114 24.3419 46.5472 24.8777C47.083 25.4135 47.8097 25.7146 48.5675 25.7146H54.2818V40.0003C54.2818 43.7891 52.7767 47.4227 50.0976 50.1018C47.4185 52.7809 43.7849 54.286 39.9961 54.286C36.2073 54.286 32.5736 52.7809 29.8946 50.1018C27.2155 47.4227 25.7104 43.7891 25.7104 40.0003V25.7146H31.4247C32.1824 25.7146 32.9091 25.4135 33.445 24.8777C33.9808 24.3419 34.2818 23.6152 34.2818 22.8574C34.2818 22.0997 33.9808 21.3729 33.445 20.8371C32.9091 20.3013 32.1824 20.0003 31.4247 20.0003H22.8532C22.0955 20.0003 21.3687 20.3013 20.8329 20.8371C20.2971 21.3729 19.9961 22.0997 19.9961 22.8574V40.0003C20.0017 44.8055 21.7373 49.4481 24.8852 53.0787C28.0331 56.7093 32.3829 59.0852 37.1389 59.7717C37.5104 66.3431 39.3675 71.2002 42.6818 74.0574C45.2672 76.2178 48.5743 77.3202 51.9389 77.1431C52.9897 77.1441 54.0396 77.0773 55.0818 76.9431C71.2532 74.6002 79.996 56.1431 79.996 40.0003C79.996 29.3916 75.7818 19.2175 68.2803 11.716C60.7789 4.21458 50.6047 0.000307848 39.9961 0.000307848Z" fill="#48CAE4"/>
<path d="M14.2806 57.1446C13.0549 57.163 11.8399 57.3752 10.6806 57.7731C6.76399 51.316 5.08897 43.7464 5.91559 36.2396C6.74221 28.7329 10.0242 21.7091 15.252 16.2589C15.5442 15.9961 15.7791 15.6758 15.9419 15.318C16.1048 14.9603 16.192 14.5728 16.1982 14.1797C16.2045 13.7867 16.1295 13.3967 15.9781 13.0339C15.8267 12.6712 15.6021 12.3436 15.3183 12.0717C15.0345 11.7997 14.6977 11.5892 14.3289 11.4534C13.96 11.3175 13.5671 11.2593 13.1747 11.2822C12.7823 11.3051 12.3989 11.4088 12.0484 11.5867C11.6979 11.7646 11.3879 12.0129 11.1377 12.316C5.01822 18.6937 1.18341 26.9185 0.232312 35.7059C-0.718789 44.4932 1.26738 53.3481 5.88057 60.8874C4.11656 62.8288 3.07408 65.3179 2.9281 67.937C2.78212 70.556 3.54152 73.1455 5.07885 75.2709C6.61617 77.3963 8.83784 78.9282 11.3709 79.6094C13.904 80.2906 16.5944 80.0797 18.9904 79.0121C21.3864 77.9445 23.3423 76.0852 24.5296 73.7462C25.717 71.4072 26.0636 68.731 25.5113 66.1667C24.959 63.6024 23.5414 61.3061 21.4964 59.6633C19.4515 58.0205 16.9036 57.1312 14.2806 57.1446ZM14.2806 74.2874C13.1504 74.2874 12.0456 73.9523 11.1059 73.3244C10.1662 72.6965 9.43375 71.804 9.00125 70.7599C8.56875 69.7157 8.45559 68.5668 8.67608 67.4583C8.89656 66.3499 9.4408 65.3317 10.24 64.5325C11.0391 63.7334 12.0573 63.1891 13.1658 62.9686C14.2742 62.7482 15.4232 62.8613 16.4673 63.2938C17.5115 63.7263 18.4039 64.4587 19.0318 65.3984C19.6597 66.3382 19.9948 67.443 19.9948 68.5731C19.9948 70.0886 19.3928 71.5421 18.3212 72.6137C17.2495 73.6854 15.7961 74.2874 14.2806 74.2874Z" fill="#48CAE4"/>
</svg>
