<svg width="211" height="43" viewBox="0 0 211 43" fill="none" xmlns="http://www.w3.org/2000/svg">
<path d="M25.4478 27.1611V33.2216L34.2569 38.4508L43.066 33.2216V22.5632L34.2569 17.3313L12.7232 30.2166L0 22.6625V7.55416L12.7232 0L25.4478 7.55416V13.4983L21.5332 15.8402V9.77799L12.7232 4.54788L3.9155 9.77799V20.4382L12.7232 25.6687L34.2569 12.7843L46.9815 20.3398V35.4445L34.2569 43L21.5332 35.4445V29.5031L25.4478 27.1611Z" fill="#48CAE4"/>
<path d="M91.6407 33.4441H86.8742L85.3598 16.0838L79.5252 33.4441H76.4326L70.598 16.0838L69.0676 33.4441H64.2852L66.2141 10.4087H73.037L77.947 24.8676L82.9207 10.4087H89.7437L91.6407 33.4441Z" fill="#090956"/>
<path d="M110.005 14.6172H101.461V19.846H109.033V24.0068H101.461V29.2196H110.005V33.4441H96.6464V10.4087H110.005V14.6172Z" fill="#090956"/>
<path d="M114.947 33.4441V10.4087H123.285C125.091 10.4087 126.691 10.685 128.083 11.2376C129.486 11.7903 130.634 12.5767 131.526 13.597C132.43 14.6066 133.11 15.8128 133.567 17.2157C134.034 18.6185 134.268 20.1861 134.268 21.9184C134.268 23.6614 134.034 25.2342 133.567 26.6371C133.11 28.0399 132.43 29.2515 131.526 30.2718C130.634 31.2814 129.486 32.0625 128.083 32.6152C126.691 33.1678 125.091 33.4441 123.285 33.4441H114.947ZM119.73 29.2196H123.045C125.128 29.2196 126.68 28.5979 127.7 27.3545C128.721 26.1004 129.231 24.2884 129.231 21.9184C129.231 19.5485 128.721 17.7418 127.7 16.4983C126.68 15.2443 125.128 14.6172 123.045 14.6172H119.73V29.2196Z" fill="#090956"/>
<path d="M138.764 33.4441V10.4087H143.546V33.4441H138.764Z" fill="#090956"/>
<path d="M159.711 33.7629C158.032 33.7629 156.464 33.4813 155.008 32.918C153.563 32.3548 152.319 31.5683 151.278 30.5587C150.236 29.5491 149.418 28.3003 148.823 26.8125C148.228 25.3246 147.93 23.6932 147.93 21.9184C147.93 19.5485 148.44 17.4654 149.46 15.6694C150.481 13.8627 151.878 12.4811 153.653 11.5246C155.439 10.5681 157.458 10.0898 159.711 10.0898C162.283 10.0898 164.536 10.7116 166.47 11.955C168.404 13.1984 169.781 14.9095 170.599 17.0882L166.135 18.7142C165.625 17.3857 164.801 16.3495 163.664 15.6056C162.527 14.8617 161.209 14.4897 159.711 14.4897C157.67 14.4897 155.991 15.1592 154.673 16.4983C153.356 17.8374 152.697 19.6441 152.697 21.9184C152.697 24.1927 153.356 26.0048 154.673 27.3545C156.002 28.6935 157.681 29.3631 159.711 29.3631C161.199 29.3631 162.511 28.9911 163.648 28.2472C164.796 27.4926 165.625 26.4511 166.135 25.1227L170.599 26.7487C169.781 28.9274 168.404 30.6437 166.47 31.8978C164.536 33.1412 162.283 33.7629 159.711 33.7629Z" fill="#090956"/>
<path d="M189.952 33.4441L188.278 28.6935H178.601L176.928 33.4441H172.034L180.514 10.4087H186.365L194.846 33.4441H189.952ZM180.004 24.6922H186.875L183.448 14.9201L180.004 24.6922Z" fill="#090956"/>
<path d="M203.104 29.2196H210.325V33.4441H198.321V10.4087H203.104V29.2196Z" fill="#090956"/>
</svg>
