<svg width="36" height="36" viewBox="0 0 36 36" fill="none" xmlns="http://www.w3.org/2000/svg">
<circle cx="18.299" cy="18.299" r="17.7013" fill="#48CAE4"/>
<path d="M22.2659 10.3633H14.3308C12.1396 10.3633 10.3633 12.1396 10.3633 14.3308V22.2659C10.3633 24.4571 12.1396 26.2334 14.3308 26.2334H22.2659C24.4571 26.2334 26.2334 24.4571 26.2334 22.2659V14.3308C26.2334 12.1396 24.4571 10.3633 22.2659 10.3633Z" fill="white"/>
<path d="M21.4739 17.7944C21.5718 18.4548 21.459 19.1292 21.1515 19.7218C20.844 20.3144 20.3575 20.795 19.7612 21.0951C19.1649 21.3953 18.4891 21.4997 17.8299 21.3937C17.1708 21.2876 16.5619 20.9764 16.0898 20.5043C15.6177 20.0323 15.3065 19.4234 15.2005 18.7642C15.0944 18.1051 15.1989 17.4293 15.499 16.833C15.7992 16.2366 16.2797 15.7501 16.8723 15.4426C17.4649 15.1351 18.1394 15.0223 18.7998 15.1203C19.4734 15.2202 20.097 15.5341 20.5786 16.0156C21.0601 16.4971 21.374 17.1208 21.4739 17.7944Z" fill="#48CAE4"/>
<path d="M24.6295 13.3034C24.6785 13.6336 24.6221 13.9709 24.4683 14.2672C24.3146 14.5635 24.0713 14.8037 23.7732 14.9538C23.475 15.1039 23.1371 15.1561 22.8075 15.1031C22.478 15.0501 22.1735 14.8945 21.9375 14.6584C21.7014 14.4224 21.5458 14.1179 21.4928 13.7884C21.4398 13.4588 21.492 13.1209 21.6421 12.8227C21.7922 12.5246 22.0324 12.2813 22.3287 12.1276C22.625 11.9738 22.9623 11.9174 23.2925 11.9664C23.6293 12.0163 23.9411 12.1733 24.1819 12.414C24.4226 12.6548 24.5796 12.9666 24.6295 13.3034Z" fill="#48CAE4"/>
</svg>
