<svg width="188" height="39" viewBox="0 0 188 39" fill="none" xmlns="http://www.w3.org/2000/svg">
<path d="M22.7467 24.2782V29.6954L30.6208 34.3695L38.4949 29.6954V20.1683L30.6208 15.4917L11.3728 27.0094L0 20.257V6.75234L11.3728 0L22.7467 6.75234V12.0655L19.2476 14.1589V8.74014L11.3728 4.06516L3.4999 8.74014V18.2688L11.3728 22.9442L30.6208 11.4273L41.9948 18.1809V31.6824L30.6208 38.4359L19.2476 31.6824V26.3716L22.7467 24.2782Z" fill="#48CAE4"/>
<path d="M81.9129 29.8949H77.6524L76.2987 14.3773L71.0834 29.8949H68.319L63.1037 14.3773L61.7358 29.8949H57.4609L59.1851 9.30452H65.2839L69.6727 22.2287L74.1185 9.30452H80.2173L81.9129 29.8949Z" fill="white"/>
<path d="M98.3283 13.0664H90.6906V17.7402H97.4591V21.4593H90.6906V26.1188H98.3283V29.8949H86.3873V9.30452H98.3283V13.0664Z" fill="white"/>
<path d="M102.746 29.8949V9.30452H110.198C111.813 9.30452 113.243 9.55151 114.487 10.0455C115.741 10.5395 116.767 11.2424 117.565 12.1544C118.372 13.0569 118.98 14.1351 119.389 15.389C119.807 16.643 120.016 18.0442 120.016 19.5926C120.016 21.1505 119.807 22.5565 119.389 23.8104C118.98 25.0644 118.372 26.1473 117.565 27.0593C116.767 27.9618 115.741 28.66 114.487 29.154C113.243 29.6479 111.813 29.8949 110.198 29.8949H102.746ZM107.02 26.1188H109.984C111.846 26.1188 113.233 25.5631 114.145 24.4517C115.057 23.3307 115.513 21.711 115.513 19.5926C115.513 17.4742 115.057 15.8593 114.145 14.7478C113.233 13.6268 111.846 13.0664 109.984 13.0664H107.02V26.1188Z" fill="white"/>
<path d="M124.034 29.8949V9.30452H128.309V29.8949H124.034Z" fill="white"/>
<path d="M142.758 30.1799C141.257 30.1799 139.856 29.9282 138.554 29.4247C137.262 28.9212 136.151 28.2182 135.22 27.3158C134.289 26.4133 133.558 25.2971 133.026 23.9672C132.494 22.6372 132.228 21.179 132.228 19.5926C132.228 17.4742 132.684 15.6123 133.596 14.0068C134.508 12.3919 135.757 11.1569 137.343 10.302C138.939 9.44701 140.744 9.01953 142.758 9.01953C145.057 9.01953 147.071 9.57526 148.8 10.6867C150.529 11.7982 151.759 13.3276 152.49 15.275L148.5 16.7285C148.044 15.541 147.308 14.6148 146.292 13.9498C145.275 13.2849 144.097 12.9524 142.758 12.9524C140.934 12.9524 139.433 13.5508 138.255 14.7478C137.077 15.9447 136.488 17.5597 136.488 19.5926C136.488 21.6255 137.077 23.2452 138.255 24.4517C139.443 25.6486 140.944 26.2471 142.758 26.2471C144.088 26.2471 145.261 25.9146 146.278 25.2496C147.304 24.5751 148.044 23.6442 148.5 22.4567L152.49 23.9102C151.759 25.8576 150.529 27.3918 148.8 28.5127C147.071 29.6242 145.057 30.1799 142.758 30.1799Z" fill="white"/>
<path d="M169.789 29.8949L168.293 25.6486H159.644L158.147 29.8949H153.773L161.353 9.30452H166.583L174.164 29.8949H169.789ZM160.897 22.072H167.039L163.975 13.3371L160.897 22.072Z" fill="white"/>
<path d="M181.545 26.1188H188V29.8949H177.27V9.30452H181.545V26.1188Z" fill="white"/>
</svg>
