<svg width="80" height="80" viewBox="0 0 80 80" fill="none" xmlns="http://www.w3.org/2000/svg">
<path d="M54.5785 4.95536C53.8283 4.87918 53.0783 5.1027 52.4922 5.57719C51.906 6.05167 51.5312 6.73864 51.4495 7.48833C51.3677 8.23802 51.5856 8.98962 52.0558 9.57928C52.5259 10.1689 53.2101 10.5488 53.9591 10.6361C58.112 11.0992 62.0551 12.705 65.35 15.2748C50.8826 13.7662 51.8624 26.4383 42.2292 26.4383C40.212 26.441 38.2472 25.7961 36.6239 24.5985C35.0006 23.4009 33.8046 21.7139 33.2119 19.7857C35.4453 16.6957 38.4337 14.23 41.8916 12.6242C42.5725 12.301 43.098 11.7219 43.3538 11.013C43.6096 10.304 43.575 9.52277 43.2573 8.83932C42.9397 8.15586 42.3649 7.6256 41.6581 7.36404C40.9513 7.10247 40.1698 7.1308 39.4837 7.44284C37.0292 8.58606 34.7534 10.0792 32.7273 11.8755V6.87218C32.7252 5.05023 32.0004 3.30351 30.7121 2.0152C29.4238 0.726879 27.6771 0.002155 25.8551 0H20.3794C18.5572 0.00186754 16.8102 0.726454 15.5216 2.01479C14.233 3.30313 13.5081 5.05001 13.5058 6.87218V8.44166H2.85714C2.09938 8.44166 1.37265 8.74268 0.836836 9.2785C0.301019 9.81432 0 10.541 0 11.2988C0 12.0566 0.301019 12.7833 0.836836 13.3191C1.37265 13.8549 2.09938 14.1559 2.85714 14.1559H16.363C17.1207 14.1559 17.8474 13.8549 18.3833 13.3191C18.9191 12.7833 19.2201 12.0566 19.2201 11.2988V6.87218C19.2206 6.565 19.343 6.27056 19.5603 6.05348C19.7776 5.8364 20.0722 5.71441 20.3794 5.71427H25.8551C26.1622 5.71446 26.4566 5.83652 26.6737 6.05362C26.8908 6.27073 27.0129 6.56514 27.013 6.87218V16.9042C27.1895 23.2961 29.0027 29.5358 32.2791 35.0268C32.4007 35.6217 32.3878 36.2363 32.2415 36.8257C32.0952 37.4151 31.8192 37.9643 31.4335 38.4334C31.0479 38.9025 30.5624 39.2795 30.0124 39.537C29.4624 39.7945 28.8619 39.926 28.2547 39.9218C27.5419 40.026 26.8948 40.3955 26.4428 40.9563C25.9907 41.5171 25.7671 42.2279 25.8166 42.9466C25.8662 43.6652 26.1852 44.3386 26.71 44.8321C27.2347 45.3256 27.9264 45.6027 28.6467 45.6081C30.3833 45.5254 32.0678 44.9885 33.532 44.051C34.9963 43.1136 36.189 41.8085 36.9911 40.266C38.3906 41.513 40.0717 42.4021 41.8902 42.857C42.5381 42.8547 43.1659 42.6325 43.671 42.2268C44.1761 41.8211 44.5285 41.256 44.6705 40.6239C44.8125 39.9918 44.7356 39.3302 44.4526 38.7474C44.1695 38.1647 43.697 37.6953 43.1123 37.4162C40.3128 36.0103 38.015 33.7751 36.5324 31.0154C38.3385 31.7662 40.2736 32.1576 42.2295 32.1679C51.022 32.1679 54.5041 25.6531 56.2184 24.0017C57.4453 22.7757 58.9556 21.871 60.6155 21.3678C62.2754 20.8646 64.0337 20.7783 65.7349 21.1166C67.4361 21.4549 69.0277 22.2073 70.3688 23.3074C71.7099 24.4074 72.7591 25.821 73.4236 27.4232C73.4557 27.4999 73.4906 27.5753 73.5296 27.6478C74.0264 28.8918 74.2829 30.2187 74.2855 31.5582V54.6056C73.1525 54.7232 72.0121 54.4672 71.0381 53.8765C70.0641 53.2857 69.31 52.3927 68.8907 51.3336C67.7627 49.065 65.9534 47.2061 63.7162 46.0171C61.4789 44.828 58.9259 44.3685 56.4145 44.7027C55.6745 44.8466 55.0214 45.277 54.5975 45.9003C54.1735 46.5235 54.0131 47.2891 54.1511 48.0302C54.2892 48.7712 54.7145 49.4277 55.3344 49.8564C55.9544 50.2852 56.7187 50.4516 57.4608 50.3194C58.6296 50.2252 59.8032 50.4308 60.8704 50.9168C59.5571 51.83 58.4919 53.0559 57.7709 54.4839C57.05 55.9118 56.696 57.4968 56.7409 59.0958C56.8116 59.8486 57.1777 60.5426 57.7591 61.026C58.3405 61.5093 59.0897 61.7426 59.8427 61.6747C60.5956 61.6068 61.291 61.2432 61.7765 60.6636C62.262 60.084 62.498 59.3357 62.4329 58.5825C62.331 57.4507 63.4018 56.2335 64.5829 55.2867C65.5846 56.9317 67.0199 58.2691 68.7313 59.1525C70.4428 60.0359 72.3644 60.431 74.2855 60.2947V68.4987C74.2837 70.0329 73.6734 71.5037 72.5886 72.5886C71.5037 73.6734 70.0329 74.2837 68.4987 74.2855C59.776 74.2703 51.2127 71.947 43.6784 67.5515C36.1441 63.156 29.9073 56.8448 25.6012 49.2591C20.9034 40.7653 18.692 31.1205 19.2201 21.4285C19.2201 20.6708 18.9191 19.944 18.3833 19.4082C17.8474 18.8724 17.1207 18.5714 16.363 18.5714H2.85714C2.09938 18.5714 1.37265 18.8724 0.836836 19.4082C0.301019 19.944 0 20.6708 0 21.4285C0 22.1863 0.301019 22.913 0.836836 23.4488C1.37265 23.9846 2.09938 24.2857 2.85714 24.2857H13.5058C13.417 33.7344 15.7416 43.0494 20.2594 51.3484V77.1427C20.2594 77.9004 20.5605 78.6272 21.0963 79.163C21.6321 79.6988 22.3588 79.9998 23.1166 79.9998C23.8743 79.9998 24.6011 79.6988 25.1369 79.163C25.6727 78.6272 25.9737 77.9004 25.9737 77.1427V59.8799C28.3804 62.6461 30.9849 65.2339 33.7667 67.6227V77.1427C33.7667 77.9004 34.0677 78.6272 34.6035 79.163C35.1393 79.6988 35.866 79.9998 36.6238 79.9998C37.3816 79.9998 38.1083 79.6988 38.6441 79.163C39.1799 78.6272 39.4809 77.9004 39.4809 77.1427V71.679C48.1713 77.1426 58.2336 80.028 68.4987 79.9998C71.548 79.9965 74.4714 78.7837 76.6275 76.6275C78.7837 74.4714 79.9965 71.548 79.9998 68.4987V31.5582C79.9998 16.5114 65.9291 6.19521 54.5785 4.95536Z" fill="#48CAE4"/>
</svg>
