<svg width="53" height="55" viewBox="0 0 53 80" fill="none" xmlns="http://www.w3.org/2000/svg">
<path d="M50.9091 52.7273H47.2727V20.9091C47.2727 15.3637 45.0698 10.0453 41.1486 6.12413C37.2274 2.20292 31.9091 0 26.3636 0C20.8182 0 15.4999 2.20292 11.5787 6.12413C7.65746 10.0453 5.45455 15.3637 5.45455 20.9091V52.7273H1.81818C1.33597 52.7273 0.873509 52.9188 0.532533 53.2598C0.191558 53.6008 0 54.0632 0 54.5455V61.8182C0 62.3004 0.191558 62.7629 0.532533 63.1038C0.873509 63.4448 1.33597 63.6364 1.81818 63.6364V78.1818C1.81818 78.664 2.00974 79.1265 2.35072 79.4675C2.69169 79.8084 3.15415 80 3.63636 80H10.9091C11.3913 80 11.8538 79.8084 12.1947 79.4675C12.5357 79.1265 12.7273 78.664 12.7273 78.1818V63.6364C13.2095 63.6364 13.6719 63.4448 14.0129 63.1038C14.3539 62.7629 14.5455 62.3004 14.5455 61.8182V54.5455C14.5455 54.0632 14.3539 53.6008 14.0129 53.2598C13.6719 52.9188 13.2095 52.7273 12.7273 52.7273H9.09091V20.9091C9.09091 16.3281 10.9107 11.9347 14.15 8.69543C17.3892 5.45616 21.7826 3.63636 26.3636 3.63636C30.9446 3.63636 35.338 5.45616 38.5773 8.69543C41.8166 11.9347 43.6364 16.3281 43.6364 20.9091V52.7273H40C39.5178 52.7273 39.0553 52.9188 38.7143 53.2598C38.3734 53.6008 38.1818 54.0632 38.1818 54.5455V61.8182C38.1818 62.3004 38.3734 62.7629 38.7143 63.1038C39.0553 63.4448 39.5178 63.6364 40 63.6364V78.1818C40 78.664 40.1916 79.1265 40.5325 79.4675C40.8735 79.8084 41.336 80 41.8182 80H49.0909C49.5731 80 50.0356 79.8084 50.3766 79.4675C50.7175 79.1265 50.9091 78.664 50.9091 78.1818V63.6364C51.3913 63.6364 51.8538 63.4448 52.1947 63.1038C52.5357 62.7629 52.7273 62.3004 52.7273 61.8182V54.5455C52.7273 54.0632 52.5357 53.6008 52.1947 53.2598C51.8538 52.9188 51.3913 52.7273 50.9091 52.7273ZM9.09091 76.3636H5.45455V63.6364H9.09091V76.3636ZM10.9091 60H3.63636V56.3636H10.9091V60ZM41.8182 56.3636H49.0909V60H41.8182V56.3636ZM47.2727 76.3636H43.6364V63.6364H47.2727V76.3636Z" fill="#48CAE4"/>
</svg>
