<svg width="80" height="80" viewBox="0 0 80 80" fill="none" xmlns="http://www.w3.org/2000/svg">
<path d="M77.0046 33.1128H54.1884C53.432 33.1128 52.7066 33.4132 52.1717 33.9481C51.6369 34.483 51.3364 35.2084 51.3364 35.9648C51.2896 37.7568 50.5721 39.4661 49.3258 40.7546C48.0795 42.0432 46.3951 42.8172 44.6056 42.9237H44.2063C42.3372 42.9166 40.5449 42.1787 39.2125 40.8677C37.8802 39.5567 37.1135 37.7766 37.0763 35.9077C37.0763 35.1513 36.7758 34.4259 36.2409 33.8911C35.7061 33.3562 34.9807 33.0557 34.2243 33.0557H30.9159L45.176 14.8028L56.0137 22.2751L54.0173 25.8116C53.7385 26.1262 53.5327 26.4986 53.4146 26.902C53.2965 27.3055 53.2691 27.7301 53.3342 28.1454C53.3994 28.5607 53.5556 28.9564 53.7916 29.3043C54.0276 29.6522 54.3376 29.9436 54.6994 30.1577C55.0612 30.3717 55.4658 30.5032 55.8844 30.5426C56.3029 30.582 56.725 30.5284 57.1204 30.3857C57.5158 30.2429 57.8747 30.0145 58.1715 29.7168C58.4683 29.4191 58.6956 29.0594 58.8372 28.6636L65.3969 18.2537C67.0427 15.6785 67.6313 12.5675 67.04 9.56894C66.4487 6.57043 64.7231 3.91576 62.2227 2.15818C59.7224 0.400595 56.6403 -0.324321 53.6186 0.134502C50.597 0.593324 47.869 2.20049 46.0031 4.62107L23.6433 33.1413H2.85202C2.09562 33.1413 1.3702 33.4418 0.835338 33.9766C0.30048 34.5115 0 35.2369 0 35.9933V62.4601C0.00755602 67.1146 1.86185 71.5758 5.15575 74.8644C8.44966 78.153 12.9139 80 17.5685 80H62.2882C66.9476 80 71.4162 78.149 74.7109 74.8543C78.0057 71.5596 79.8566 67.091 79.8566 62.4315V35.9648C79.8566 35.2084 79.5561 34.483 79.0213 33.9481C78.4864 33.4132 77.761 33.1128 77.0046 33.1128ZM58.8942 6.98825C60.1778 7.89861 61.0644 9.26567 61.3719 10.8089C61.6795 12.3522 61.3849 13.9547 60.5484 15.2876L59.1795 17.4837L48.7981 10.3536L50.5093 8.21461C51.4968 6.9935 52.9081 6.18921 54.462 5.96193C56.0159 5.73466 57.5984 6.1011 58.8942 6.98825ZM74.1526 62.4315C74.145 65.5759 72.8926 68.5892 70.6692 70.8126C68.4459 73.036 65.4325 74.2884 62.2882 74.296H17.5685C14.4241 74.2884 11.4107 73.036 9.18737 70.8126C6.96399 68.5892 5.71157 65.5759 5.70404 62.4315V38.8168H31.743C32.4296 41.6074 34.029 44.0885 36.2871 45.866C38.5452 47.6436 41.3326 48.6156 44.2063 48.6278H44.9479C47.6903 48.4628 50.3078 47.4241 52.4171 45.6638C54.5265 43.9034 56.0167 41.514 56.6697 38.8453H74.1526V62.4315Z" fill="#48CAE4"/>
</svg>
