<svg width="58" height="80" viewBox="0 0 58 80" fill="none" xmlns="http://www.w3.org/2000/svg">
<path d="M40.5957 46.2528C38.9905 45.8844 37.358 45.6474 35.7143 45.5442V39.9416C39.2032 36.7792 41.3584 32.408 41.7425 27.7149V22.5419C41.7367 19.8132 40.8725 17.1555 39.2723 14.9452L43.0066 3.76117C43.1497 3.33163 43.1887 2.87424 43.1204 2.42667C43.0521 1.97911 42.8784 1.55417 42.6137 1.18688C42.349 0.819585 42.0008 0.52044 41.5978 0.314089C41.1948 0.107738 40.7485 8.57254e-05 40.2958 0H16.8472C16.3945 6.44083e-05 15.9482 0.107705 15.5452 0.314053C15.1422 0.520401 14.794 0.81955 14.5293 1.18685C14.2646 1.55416 14.0909 1.9791 14.0226 2.42668C13.9544 2.87425 13.9934 3.33164 14.1365 3.76117L17.8691 14.9402C16.2691 17.1523 15.4055 19.8117 15.4005 22.5419V27.7149C15.7009 32.4644 17.8531 36.9064 21.3943 40.0857L21.257 45.7143C18.465 45.7129 15.7 46.2618 13.1203 47.3296C10.5405 48.3975 8.19655 49.9633 6.22236 51.9376C4.24816 53.912 2.68247 56.256 1.61479 58.8359C0.547117 61.4157 -0.00160384 64.1806 3.52109e-06 66.9727V77.1429C3.52109e-06 77.9006 0.301024 78.6273 0.836842 79.1632C1.37266 79.699 2.09938 80 2.85715 80C3.61491 80 4.34163 79.699 4.87745 79.1632C5.41327 78.6273 5.71429 77.9006 5.71429 77.1429V66.9727C5.71342 64.9321 6.1149 62.9115 6.89575 61.0263C7.65492 62.7309 8.77986 64.2477 10.1908 65.4689C11.6017 66.6902 13.264 67.5861 15.0599 68.0931C16.8558 68.6001 18.7412 68.7057 20.5825 68.4025C22.4238 68.0994 24.1758 67.3948 25.7143 66.3388V77.1429C25.7143 77.9006 26.0153 78.6273 26.5511 79.1632C27.0869 79.699 27.8137 80 28.5714 80C29.3292 80 30.0559 79.699 30.5917 79.1632C31.1276 78.6273 31.4286 77.9006 31.4286 77.1429V66.3388C32.9683 67.3955 34.7218 68.1003 36.5645 68.4032C38.4073 68.706 40.2941 68.5994 42.091 68.091C43.8879 67.5826 45.5509 66.6848 46.9618 65.4614C48.3727 64.238 49.497 62.7189 50.2548 61.0121C51.0328 62.9029 51.4317 64.9281 51.4286 66.9727V77.1429C51.4286 77.9006 51.7296 78.6273 52.2654 79.1632C52.8012 79.699 53.528 80 54.2857 80C55.0435 80 55.7702 79.699 56.306 79.1632C56.8418 78.6273 57.1429 77.9006 57.1429 77.1429V66.9727C57.1429 50.0444 40.1583 45.9711 40.5957 46.2528ZM35.7708 20.6943C31.6861 21.433 26.9502 18.8681 24.0029 16.7197C24.9745 15.9652 26.118 15.4632 27.331 15.2584C28.544 15.0536 29.7889 15.1525 30.9544 15.5461C32.1199 15.9398 33.1698 16.6159 34.0102 17.5143C34.8507 18.4126 35.4556 19.5052 35.7708 20.6943ZM36.3295 5.71429L34.6191 10.8371C32.7388 9.90852 30.6694 9.42687 28.5723 9.42977C26.4751 9.43268 24.407 9.92005 22.5293 10.8539L20.8133 5.71429H36.3295ZM21.1911 21.7252C25.4013 25.045 30.6736 26.7234 36.0282 26.4486V27.7149C35.5837 31.0589 33.8686 34.1034 31.2389 36.2165C26.0629 39.7634 21.1147 31.8971 21.1147 27.7149C21.018 25.7186 21.0435 23.7183 21.1911 21.7252ZM27.1429 42.7623C28.0911 42.8923 29.0528 42.8885 30 42.7511C30.2147 43.7654 28.3716 51.0797 36.6049 51.4448C33.7497 63.0486 23.3006 62.675 20.5385 51.4448C20.7747 51.4343 21.0142 51.4289 21.257 51.4286C28.3381 51.4286 27.0635 43.0494 27.1429 42.7623ZM11.4699 54.9509C12.5253 54.0664 13.6983 53.3327 14.9554 52.7707C15.845 56.5145 17.8065 59.9178 20.6 62.5642C19.4724 62.8962 18.2803 62.9452 17.1293 62.7066C15.9783 62.4681 14.9038 61.9495 14.001 61.1967C13.0982 60.4438 12.395 59.4801 11.9535 58.3906C11.512 57.3012 11.3459 56.1198 11.4699 54.9508V54.9509ZM36.5444 62.5642C39.3304 59.9094 41.2908 56.5068 42.1903 52.7651C43.4468 53.3323 44.6189 54.0703 45.6735 54.9582C45.7963 56.1265 45.6294 57.307 45.1875 58.3954C44.7455 59.4839 44.0422 60.4466 43.1397 61.1986C42.2372 61.9505 41.1632 62.4685 40.0129 62.7067C38.8626 62.9449 37.6713 62.8959 36.5444 62.5642V62.5642Z" fill="#48CAE4"/>
</svg>
