<svg width="64" height="70" viewBox="0 0 64 80" fill="none" xmlns="http://www.w3.org/2000/svg">
<path fill-rule="evenodd" clip-rule="evenodd" d="M35.9892 8.00565V16.0192H19.994C18.9343 16.0192 17.9147 16.4391 17.167 17.1909C16.4152 17.9387 15.9952 18.9583 15.9952 20.018V48.0096C15.9952 55.9672 21.8055 62.5692 29.4152 63.7969C29.4152 63.7969 31.1987 67.3598 32.4143 69.791C33.0901 71.1466 34.4736 72.0024 35.9892 72.0024V80H43.9868V72.0024C45.5023 72.0024 46.8858 71.1466 47.5616 69.791C48.7773 67.3598 50.5607 63.7969 50.5607 63.7969C58.1704 62.5692 63.9808 55.9672 63.9808 48.0096C63.9808 48.0096 63.9808 28.5994 63.9808 20.018C63.9808 18.9583 63.5608 17.9387 62.809 17.1909C62.0612 16.4391 61.0417 16.0192 59.982 16.0192H43.9868V8.00162L51.9844 7.9976V0C51.9844 0 30.1989 0.0120159 15.9871 0.0200135C7.15779 0.0240123 0 7.18186 0 16.0152V80H7.9976C7.9976 80 7.9976 37.4208 7.9976 16.0152C7.9976 11.5965 11.5766 8.01761 15.9913 8.01761L35.9892 8.00565ZM47.9856 56.0072C46.4021 56.0072 45.0305 56.9309 44.3827 58.2665L41.5156 64.0048H38.4604C37.4567 62.0014 35.6773 58.4425 35.6773 58.4425L35.6692 58.4345C35.0574 57.0069 33.6379 56.0072 31.9904 56.0072C27.5717 56.0072 23.9928 52.4283 23.9928 48.0096V24.0168H55.9832V48.0096C55.9832 52.4283 52.4043 56.0072 47.9856 56.0072ZM47.9856 36.0132H31.9904V44.0108H47.9856V36.0132Z" fill="#48CAE4"/>
</svg>
