<svg width="57" height="80" viewBox="0 0 57 80" fill="none" xmlns="http://www.w3.org/2000/svg">
<path d="M44.125 36.9532C41.8783 36.9619 39.6732 37.5593 37.7294 38.6858C35.7856 39.8124 34.171 41.4287 33.0465 43.3737C32.4992 44.0655 31.8022 44.6242 31.0079 45.0079C30.2136 45.3916 29.3427 45.5903 28.4606 45.5891C27.5785 45.5879 26.7081 45.3868 25.9149 45.0009C25.1216 44.6151 24.4262 44.0545 23.8807 43.3612C22.7245 41.3644 21.0501 39.7172 19.0347 38.5938C17.0192 37.4704 14.7376 36.9127 12.4312 36.9795C10.1248 37.0463 7.87932 37.7352 5.93228 38.9734C3.98524 40.2116 2.40903 41.9529 1.37038 44.0133C0.331719 46.0737 -0.130769 48.3765 0.0318302 50.6782C0.19443 52.9798 0.976071 55.1947 2.29408 57.0886C3.61208 58.9825 5.41745 60.485 7.51923 61.4372C9.621 62.3893 11.941 62.7557 14.2339 62.4976V77.1499C14.2339 77.9049 14.5339 78.629 15.0677 79.1629C15.6016 79.6968 16.3257 79.9967 17.0807 79.9967C17.8357 79.9967 18.5598 79.6968 19.0937 79.1629C19.6275 78.629 19.9275 77.9049 19.9275 77.1499V58.7307C19.9271 58.2435 19.8017 57.7645 19.5633 57.3395C19.325 56.9146 18.9816 56.5579 18.566 56.3035C18.1505 56.0492 17.6766 55.9056 17.1897 55.8867C16.7029 55.8678 16.2193 55.974 15.7852 56.1953C14.8205 56.6426 13.7677 56.8675 12.7044 56.8536C11.6411 56.8397 10.5946 56.5872 9.64188 56.1149C8.68919 55.6426 7.8547 54.9624 7.19996 54.1245C6.54521 53.2866 6.08692 52.3125 5.85889 51.2738C5.63086 50.2352 5.6389 49.1587 5.88243 48.1236C6.12596 47.0885 6.59875 46.1213 7.26595 45.2933C7.93314 44.4653 8.7777 43.7976 9.73734 43.3396C10.697 42.8815 11.7472 42.6448 12.8106 42.6467C20.2124 42.6467 18.5642 51.3872 28.4678 51.3872C38.0439 51.3872 36.9018 42.6467 44.125 42.6467C45.1883 42.6448 46.2386 42.8815 47.1982 43.3396C48.1579 43.7976 49.0024 44.4653 49.6696 45.2933C50.3368 46.1213 50.8096 47.0885 51.0531 48.1236C51.2966 49.1587 51.3047 50.2352 51.0767 51.2738C50.8486 52.3125 50.3903 53.2866 49.7356 54.1245C49.0809 54.9624 48.2464 55.6426 47.2937 56.1149C46.341 56.5872 45.2944 56.8397 44.2312 56.8536C43.1679 56.8675 42.1151 56.6426 41.1504 56.1953C40.7163 55.974 40.2327 55.8677 39.7458 55.8866C39.2589 55.9056 38.785 56.0491 38.3695 56.3034C37.9539 56.5578 37.6105 56.9145 37.3721 57.3395C37.1338 57.7645 37.0084 58.2435 37.0081 58.7307V77.1499C37.0081 77.9049 37.308 78.629 37.8419 79.1629C38.3757 79.6968 39.0998 79.9967 39.8548 79.9967C40.6099 79.9967 41.3339 79.6968 41.8678 79.1629C42.4017 78.629 42.7016 77.9049 42.7016 77.1499V62.4976C44.4332 62.691 46.1861 62.5292 47.8531 62.022C49.52 61.5148 51.066 60.6729 52.3964 59.5478C53.7269 58.4228 54.8139 57.0381 55.5909 55.4786C56.368 53.9191 56.8187 52.2174 56.9157 50.4777C57.0126 48.738 56.7537 46.9969 56.1547 45.3607C55.5557 43.7245 54.6293 42.2276 53.4321 40.9617C52.2348 39.6958 50.792 38.6874 49.1917 37.9981C47.5914 37.3089 45.8674 36.9533 44.125 36.9531V36.9532Z" fill="#48CAE4"/>
<path d="M24.9443 30.2455C25.2476 29.5631 25.7417 28.9829 26.3671 28.5747C26.9925 28.1666 27.7225 27.9479 28.4693 27.945C29.0196 27.932 29.5658 28.0431 30.0673 28.27C30.5687 28.4969 31.0127 28.8339 31.3662 29.2558C32.2774 30.9106 33.6146 32.2917 35.239 33.256C36.8635 34.2203 38.7163 34.7328 40.6054 34.7403C42.4945 34.7478 44.3513 34.2501 45.9834 33.2988C47.6155 32.3475 48.9636 30.9771 49.888 29.3296C50.8124 27.6821 51.2796 25.8174 51.2411 23.9286C51.2025 22.0399 50.6597 20.1958 49.6689 18.5874C48.6781 16.9789 47.2752 15.6646 45.6057 14.7807C43.9361 13.8967 42.0606 13.4751 40.1733 13.5597V2.84677C40.1733 2.09176 39.8734 1.36767 39.3396 0.833798C38.8057 0.299926 38.0816 0 37.3266 0C36.5716 0 35.8475 0.299926 35.3136 0.833798C34.7797 1.36767 34.4798 2.09176 34.4798 2.84677V17.1724C34.4804 17.6598 34.6061 18.1389 34.8447 18.5639C35.0834 18.9888 35.4271 19.3455 35.843 19.5997C36.2588 19.854 36.7329 19.9973 37.22 20.0159C37.707 20.0346 38.1908 19.928 38.6249 19.7063C39.29 19.4025 40.0148 19.2516 40.746 19.2648C41.4771 19.278 42.196 19.455 42.8498 19.7826C43.5036 20.1103 44.0756 20.5804 44.5237 21.1583C44.9718 21.7361 45.2847 22.4071 45.4394 23.1219C45.594 23.8366 45.5864 24.5769 45.4172 25.2883C45.248 25.9998 44.9215 26.6642 44.4616 27.2328C44.0018 27.8014 43.4203 28.2597 42.76 28.574C42.0997 28.8882 41.3773 29.0504 40.6461 29.0487C35.6645 29.0487 36.3886 22.2515 28.4695 22.2515C20.4448 22.2515 21.5129 29.0487 16.2929 29.0487C15.5616 29.0504 14.8392 28.8882 14.1789 28.574C13.5186 28.2597 12.9371 27.8014 12.4773 27.2328C12.0174 26.6642 11.6909 25.9998 11.5217 25.2883C11.3525 24.5769 11.3449 23.8366 11.4996 23.1219C11.6542 22.4071 11.9671 21.7361 12.4152 21.1583C12.8634 20.5804 13.4354 20.1103 14.0891 19.7826C14.7429 19.455 15.4618 19.278 16.1929 19.2648C16.9241 19.2516 17.6489 19.4025 18.3141 19.7063C18.7482 19.9279 19.2318 20.0344 19.7188 20.0156C20.2058 19.9969 20.6799 19.8536 21.0957 19.5994C21.5115 19.3452 21.8552 18.9886 22.0939 18.5637C22.3325 18.1387 22.4582 17.6597 22.459 17.1724V2.84677C22.459 2.09176 22.159 1.36767 21.6252 0.833798C21.0913 0.299926 20.3672 0 19.6122 0C18.8572 0 18.1331 0.299926 17.5992 0.833798C17.0654 1.36767 16.7654 2.09176 16.7654 2.84677V13.5597C14.9284 13.4767 13.1013 13.8735 11.4641 14.7109C9.82692 15.5483 8.43594 16.7976 7.42803 18.3357C6.42012 19.8738 5.83002 21.6479 5.71577 23.4832C5.60153 25.3186 5.96709 27.1522 6.77648 28.8034C7.58587 30.4546 8.81121 31.8667 10.3319 32.9007C11.8527 33.9347 13.6164 34.555 15.4496 34.7005C17.2827 34.846 19.1222 34.5117 20.787 33.7306C22.4518 32.9495 23.8846 31.7484 24.9443 30.2455H24.9443Z" fill="#48CAE4"/>
</svg>
